<?xml version="1.0" encoding="utf-8"?>
<!-- Generator: Adobe Illustrator 18.1.1, SVG Export Plug-In . SVG Version: 6.00 Build 0)  -->
<!DOCTYPE svg PUBLIC "-//W3C//DTD SVG 1.1//EN" "http://www.w3.org/Graphics/SVG/1.1/DTD/svg11.dtd" [
	<!ENTITY ns_extend "http://ns.adobe.com/Extensibility/1.0/">
	<!ENTITY ns_ai "http://ns.adobe.com/AdobeIllustrator/10.0/">
	<!ENTITY ns_graphs "http://ns.adobe.com/Graphs/1.0/">
	<!ENTITY ns_vars "http://ns.adobe.com/Variables/1.0/">
	<!ENTITY ns_imrep "http://ns.adobe.com/ImageReplacement/1.0/">
	<!ENTITY ns_sfw "http://ns.adobe.com/SaveForWeb/1.0/">
	<!ENTITY ns_custom "http://ns.adobe.com/GenericCustomNamespace/1.0/">
	<!ENTITY ns_adobe_xpath "http://ns.adobe.com/XPath/1.0/">
]>
<svg version="1.1" id="Layer_1" xmlns:x="&ns_extend;" xmlns:i="&ns_ai;" xmlns:graph="&ns_graphs;"
	 xmlns="http://www.w3.org/2000/svg" xmlns:xlink="http://www.w3.org/1999/xlink" x="0px" y="0px" width="78.506px"
	 height="78.506px" viewBox="0 0 78.506 78.506" enable-background="new 0 0 78.506 78.506" xml:space="preserve">
<metadata>
	<sfw  xmlns="&ns_sfw;">
		<slices></slices>
		<sliceSourceBounds  height="78.506" width="78.506" bottomLeftOrigin="true" y="-2134.389" x="3283.912"></sliceSourceBounds>
	</sfw>
</metadata>
<linearGradient id="SVGID_1_" gradientUnits="userSpaceOnUse" x1="39.2529" y1="77.4502" x2="39.2529" y2="1.1156">
	<stop  offset="0" style="stop-color:#007DC5"/>
	<stop  offset="1" style="stop-color:#00B3F0"/>
</linearGradient>
<path fill="url(#SVGID_1_)" d="M11.771,78.506C5.279,78.506,0,73.227,0,66.736V11.769C0,5.279,5.279,0,11.771,0h54.965
	c6.49,0,11.77,5.279,11.77,11.769v54.967c0,6.49-5.279,11.77-11.77,11.77H11.771z"/>
<g>
	<path fill="#FFFFFF" d="M68.023,38.244c0,3.043-1.325,5.512-2.956,5.607c-0.224,0.891-1.029,1.547-1.983,1.547h-0.847
		c-1.124,0-2.046-0.922-2.046-2.045V32.797c0-0.934,0.636-1.729,1.495-1.961c-0.647-10.887-10.357-16.535-22.259-16.535
		c-11.947,0-21.697,5.713-22.27,16.662c0.678,0.328,1.156,1.029,1.156,1.834v10.557c0,1.123-0.924,2.045-2.048,2.045H15.42
		c-0.955,0-1.76-0.656-1.983-1.547c-1.642-0.096-2.956-2.564-2.956-5.607c0-3.01,1.294-5.457,2.904-5.596
		c0.064-1.018,0.891-1.834,1.906-1.887c0.68-11.818,11.225-21.199,24.137-21.199c12.92,0,23.466,9.4,24.124,21.24
		c0.857,0.201,1.505,0.945,1.569,1.846C66.731,32.787,68.023,35.234,68.023,38.244z"/>
</g>
<g>
	<path fill="none" stroke="#FFFFFF" stroke-width="1.5" d="M41.091,37.012c0,0,0.966-2.955,7.236-2.955
		c6.269,0,6.933,3.377,6.933,3.799c0,0.422-0.904,6.33-7.175,6.33C41.393,44.186,41.091,37.012,41.091,37.012z"/>
	<path fill="none" stroke="#FFFFFF" stroke-width="1.5" d="M37.413,37.012c0,0-0.966-2.955-7.235-2.955
		c-6.271,0-6.934,3.377-6.934,3.799c0,0.422,0.904,6.33,7.175,6.33C37.111,44.186,37.413,37.012,37.413,37.012z"/>
	<line fill="none" stroke="#FFFFFF" stroke-width="1.5" x1="37.354" y1="37.254" x2="41.091" y2="37.254"/>
</g>
<g>
	<path fill="#FFFFFF" d="M61.119,53.701c-2.483,3.766-4.279,3.852-5.735,3.338c-1.454-0.514-4.362-5.734-9.242-5.82
		c-4.493-0.078-6.592,2.678-6.89,3.109c-0.298-0.432-2.396-3.188-6.89-3.109c-4.879,0.086-7.788,5.307-9.242,5.82
		c-1.456,0.514-3.253,0.428-5.735-3.338l-3.879,9.717c2.922,4.434,5.038,4.535,6.752,3.93c1.712-0.604,5.139-6.75,10.882-6.852
		c5.291-0.094,7.763,3.152,8.112,3.66c0.351-0.508,2.821-3.754,8.113-3.66c5.742,0.102,9.169,6.248,10.881,6.852
		c1.714,0.605,3.83,0.504,6.752-3.93L61.119,53.701z"/>
	<line fill="#FFFFFF" x1="39.252" y1="54.328" x2="39.252" y2="63.896"/>
</g>
</svg>
