<?xml version="1.0" encoding="utf-8"?><!DOCTYPE svg PUBLIC "-//W3C//DTD SVG 1.1//EN" "http://www.w3.org/Graphics/SVG/1.1/DTD/svg11.dtd"><svg version="1.1" baseProfile="full" xmlns="http://www.w3.org/2000/svg" xmlns:xlink="http://www.w3.org/1999/xlink" xmlns:ev="http://www.w3.org/2001/xml-events"   height="6px"   width="9px" ><path fill="rgb( 67, 78, 85 )" d="M7.847,2.115 C7.847,2.115 4.887,5.806 4.887,5.806 C4.78,5.939 4.64,5.999 4.501,5.994 C4.362,5.999 4.222,5.939 4.116,5.806 C4.116,5.806 1.157,2.115 1.157,2.115 C0.952,1.861 0.952,1.448 1.157,1.193 C1.361,0.938 1.692,0.938 1.896,1.193 C1.896,1.193 4.501,4.441 4.501,4.441 C4.501,4.441 7.107,1.193 7.107,1.193 C7.311,0.938 7.642,0.938 7.847,1.193 C8.051,1.448 8.051,1.861 7.847,2.115 Z "/></svg>