<?xml version="1.0" encoding="utf-8"?><!DOCTYPE svg PUBLIC "-//W3C//DTD SVG 1.1//EN" "http://www.w3.org/Graphics/SVG/1.1/DTD/svg11.dtd"><svg version="1.1" baseProfile="full" xmlns="http://www.w3.org/2000/svg" xmlns:xlink="http://www.w3.org/1999/xlink" xmlns:ev="http://www.w3.org/2001/xml-events"   height="13px"   width="15px" ><path fill="rgb( 59, 73, 82 )" d="M0.68199999999999,2.02199999999999 C1.59700000000001,2.08999999999997 2.245,1.80500000000001 2.858,1.53699999999998 C4.07499999999999,1.00299999999999 5.179,0.51999999999998 7.501,1.911 C9.82499999999999,0.51999999999998 10.929,1.00299999999999 12.144,1.53699999999998 C12.768,1.81 13.431,2.10000000000002 14.37,2.01799999999997 C14.685,1.99200000000002 14.965,2.21899999999999 14.991,2.524 C14.991,2.524 14.993,2.57299999999998 14.993,2.57299999999998 C14.993,2.57299999999998 14.996,2.57299999999998 14.996,2.57299999999998 C14.996,2.57299999999998 14.996,11.435 14.996,11.435 C14.996,11.744 14.739,11.993 14.42,11.993 C14.42,11.993 14.415,11.993 14.415,11.993 C13.2,12.087 12.415,11.742 11.672,11.415 C10.705,10.992 9.82900000000001,10.609 7.81800000000001,11.899 C7.62,12.026 7.37,12.019 7.18299999999999,11.899 C5.173,10.609 4.29900000000001,10.992 3.33199999999999,11.415 C2.577,11.746 1.77699999999999,12.097 0.53200000000001,11.989 C0.23400000000001,11.964 0.00800000000001,11.72 0.00800000000001,11.435 C0.00800000000001,11.435 0.006,11.435 0.006,11.435 C0.006,11.435 0.006,2.57299999999998 0.006,2.57299999999998 C0.006,2.26400000000001 0.26499999999999,2.01400000000001 0.58199999999999,2.01400000000001 C0.61699999999999,2.01400000000001 0.649,2.017 0.68199999999999,2.02199999999999 C0.68199999999999,2.02199999999999 0.68199999999999,2.02199999999999 0.68199999999999,2.02199999999999 ZM7.846,3.01900000000001 C7.846,3.01900000000001 7.846,10.576 7.846,10.576 C9.93799999999999,9.43299999999999 10.99,9.89400000000001 12.144,10.399 C12.644,10.619 13.17,10.85 13.844,10.89 C13.844,10.89 13.844,3.14100000000002 13.844,3.14100000000002 C12.942,3.10899999999998 12.289,2.82400000000001 11.672,2.553 C10.709,2.13099999999997 9.83699999999999,1.74900000000002 7.846,3.01900000000001 C7.846,3.01900000000001 7.846,3.01900000000001 7.846,3.01900000000001 ZM7.155,10.576 C7.155,10.576 7.155,3.01900000000001 7.155,3.01900000000001 C5.16399999999999,1.74900000000002 4.29499999999999,2.13099999999997 3.33199999999999,2.553 C2.71199999999999,2.82400000000001 2.06200000000001,3.10899999999998 1.15799999999999,3.14100000000002 C1.15799999999999,3.14100000000002 1.15799999999999,10.89 1.15799999999999,10.89 C1.83199999999999,10.85 2.358,10.619 2.858,10.399 C4.012,9.89400000000001 5.066,9.43299999999999 7.155,10.576 Z "/></svg>