<?xml version="1.0" encoding="utf-8"?><!DOCTYPE svg PUBLIC "-//W3C//DTD SVG 1.1//EN" "http://www.w3.org/Graphics/SVG/1.1/DTD/svg11.dtd"><svg version="1.1" baseProfile="full" xmlns="http://www.w3.org/2000/svg" xmlns:xlink="http://www.w3.org/1999/xlink" xmlns:ev="http://www.w3.org/2001/xml-events"   height="15px"   width="18px" ><path fill="rgb( 34, 159, 255 )" d="M17.341,13.975 C17.341,13.975 17.337,13.975 17.337,13.975 C15.958,14.087 15.068,13.679 14.225,13.294 C13.128,12.794 12.134,12.343 9.85300000000001,13.865 C9.62799999999999,14.015 9.34500000000003,14.007 9.13299999999998,13.865 C8.25799999999998,13.281 7.57400000000001,12.991 7,12.879 C7,12.879 7,11.515 7,11.515 C7.596,11.603 8.274,11.834 9.101,12.304 C9.101,12.304 9.101,3.38799999999998 9.101,3.38799999999998 C6.84199999999998,1.88999999999999 5.85599999999999,2.34100000000001 4.76400000000001,2.83800000000002 C4.06099999999998,3.15800000000002 3.32400000000001,3.495 2.298,3.53300000000002 C2.298,3.53300000000002 2.298,6 2.298,6 C2.298,6 0.99099999999999,6 0.99099999999999,6 C0.99099999999999,6 0.99099999999999,2.86200000000002 0.99099999999999,2.86200000000002 C0.99099999999999,2.49799999999999 1.28399999999999,2.20299999999997 1.64400000000001,2.20299999999997 C1.68400000000003,2.20299999999997 1.721,2.20699999999999 1.75799999999998,2.21300000000002 C2.79599999999999,2.29199999999997 3.53100000000001,1.95600000000002 4.226,1.63999999999999 C5.60700000000003,1.01100000000002 6.86000000000001,0.44 9.49299999999999,2.08100000000002 C12.129,0.44 13.381,1.01100000000002 14.76,1.63999999999999 C15.467,1.96199999999999 16.22,2.30399999999997 17.285,2.20800000000003 C17.643,2.17700000000002 17.96,2.44499999999999 17.99,2.80500000000001 C17.99,2.80500000000001 17.992,2.86200000000002 17.992,2.86200000000002 C17.992,2.86200000000002 17.995,2.86200000000002 17.995,2.86200000000002 C17.995,2.86200000000002 17.995,13.318 17.995,13.318 C17.995,13.681 17.704,13.975 17.341,13.975 ZM16.688,3.53300000000002 C15.665,3.495 14.925,3.15800000000002 14.225,2.83800000000002 C13.132,2.34100000000001 12.144,1.88999999999999 9.88499999999999,3.38799999999998 C9.88499999999999,3.38799999999998 9.88499999999999,12.304 9.88499999999999,12.304 C12.257,10.955 13.45,11.499 14.76,12.096 C15.327,12.355 15.924,12.626 16.688,12.674 C16.688,12.674 16.688,3.53300000000002 16.688,3.53300000000002 ZM2,8 C2,8 4,8 4,8 C4,8 4,10 4,10 C4,10 6,10 6,10 C6,10 6,12 6,12 C6,12 4,12 4,12 C4,12 4,14 4,14 C4,14 2,14 2,14 C2,14 2,12 2,12 C2,12 0,12 0,12 C0,12 0,10 0,10 C0,10 2,10 2,10 C2,10 2,8 2,8 Z "/></svg>