<?xml version="1.0" encoding="UTF-8" standalone="no"?>
<svg width="26px" height="27px" viewBox="0 0 26 27" version="1.1" xmlns="http://www.w3.org/2000/svg" xmlns:xlink="http://www.w3.org/1999/xlink" xmlns:sketch="http://www.bohemiancoding.com/sketch/ns">
    <!-- Generator: Sketch 3.3 (11970) - http://www.bohemiancoding.com/sketch -->
    <title>book2</title>
    <desc>Created with Sketch.</desc>
    <defs></defs>
    <g id="Page-1" stroke="none" stroke-width="1" fill="none" fill-rule="evenodd" sketch:type="MSPage">
        <path d="M22.398,0.9 C22.398,0.9 17.77,2.173 13.559,3.298 C13.031,3.322 12.5,3.298 11.973,3.298 C7.965,2.224 3.199,0.9 3.199,0.9 C1.434,0.9 0,2.334 0,4.099 L0,20.9 C0,22.666 1.508,23.548 3.199,24.099 C3.199,24.099 7.516,25.298 11.973,26.502 L13.594,26.502 C18.09,25.298 22.398,24.099 22.398,24.099 C24.043,23.673 25.602,22.666 25.602,20.9 L25.602,4.099 C25.602,2.334 24.168,0.9 22.398,0.9 L22.398,0.9 Z M12,24.9 C7.629,23.724 3.199,22.502 3.199,22.502 C2.293,22.252 1.602,21.783 1.602,20.9 L1.602,4.099 C1.602,3.216 2.316,2.502 3.199,2.502 L12,4.9 L12,24.9 Z M24,20.9 C24,21.783 23.258,22.224 22.398,22.502 C22.398,22.502 18.047,23.712 13.602,24.88 L13.602,4.9 L22.398,2.502 C23.285,2.502 24,3.216 24,4.099 L24,20.9 Z" id="book2" fill="#000000" sketch:type="MSShapeGroup"></path>
    </g>
</svg>