<?xml version="1.0" encoding="utf-8"?><!DOCTYPE svg PUBLIC "-//W3C//DTD SVG 1.1//EN" "http://www.w3.org/Graphics/SVG/1.1/DTD/svg11.dtd"><svg version="1.1" baseProfile="full" xmlns="http://www.w3.org/2000/svg" xmlns:xlink="http://www.w3.org/1999/xlink" xmlns:ev="http://www.w3.org/2001/xml-events"   height="17px"   width="17px" ><path fill="rgb( 255, 255, 255 )" d="M10.621,8.5 C10.621,8.5 15.925,13.803 15.925,13.803 C16.51,14.389 16.51,15.339 15.925,15.925 C15.339,16.51 14.389,16.51 13.803,15.925 C13.803,15.925 8.5,10.621 8.5,10.621 C8.5,10.621 3.197,15.925 3.197,15.925 C2.61099999999999,16.51 1.661,16.51 1.07499999999999,15.925 C0.49000000000001,15.339 0.49000000000001,14.389 1.07499999999999,13.803 C1.07499999999999,13.803 6.37900000000002,8.5 6.37900000000002,8.5 C6.37900000000002,8.5 1.07499999999999,3.197 1.07499999999999,3.197 C0.49000000000001,2.611 0.49000000000001,1.661 1.07499999999999,1.075 C1.661,0.49 2.61099999999999,0.49 3.197,1.075 C3.197,1.075 8.5,6.379 8.5,6.379 C8.5,6.379 13.803,1.075 13.803,1.075 C14.389,0.49 15.339,0.49 15.925,1.075 C16.51,1.661 16.51,2.611 15.925,3.197 C15.925,3.197 10.621,8.5 10.621,8.5 Z "/></svg>