<?xml version="1.0" encoding="utf-8"?><!DOCTYPE svg PUBLIC "-//W3C//DTD SVG 1.1//EN" "http://www.w3.org/Graphics/SVG/1.1/DTD/svg11.dtd"><svg version="1.1" baseProfile="full" xmlns="http://www.w3.org/2000/svg" xmlns:xlink="http://www.w3.org/1999/xlink" xmlns:ev="http://www.w3.org/2001/xml-events"   height="10px"   width="10px" ><path fill="rgb( 16, 157, 255 )" d="M10,10 C10,10 8.07100000000003,10 8.07100000000003,10 C8.07100000000003,10 5,6.929 5,6.929 C5,6.929 1.92899999999997,10 1.92899999999997,10 C1.92899999999997,10 0,10 0,10 C0,10 0,8.063 0,8.063 C0,8.063 3.07900000000001,5 3.07900000000001,5 C3.07900000000001,5 0,1.937 0,1.937 C0,1.937 0,0 0,0 C0,0 1.92899999999997,0 1.92899999999997,0 C1.92899999999997,0 5,3.071 5,3.071 C5,3.071 8.07100000000003,0 8.07100000000003,0 C8.07100000000003,0 10,0 10,0 C10,0 10,1.937 10,1.937 C10,1.937 6.92099999999999,5 6.92099999999999,5 C6.92099999999999,5 10,8.063 10,8.063 C10,8.063 10,10 10,10 Z "/></svg>