<?xml version="1.0" encoding="UTF-8" standalone="no"?>
<svg width="23px" height="26px" viewBox="0 0 23 26" version="1.1" xmlns="http://www.w3.org/2000/svg" xmlns:xlink="http://www.w3.org/1999/xlink" xmlns:sketch="http://www.bohemiancoding.com/sketch/ns">
    <!-- Generator: Sketch 3.3 (11970) - http://www.bohemiancoding.com/sketch -->
    <title>copy</title>
    <desc>Created with Sketch.</desc>
    <defs></defs>
    <g id="Page-1" stroke="none" stroke-width="1" fill="none" fill-rule="evenodd" sketch:type="MSPage">
        <path d="M16.801,0 L7.199,0 C5.508,0 4,1.555 4,3.199 L3.074,3.223 C1.383,3.223 0,4.754 0,6.398 L0,22.398 C0,24.047 1.508,25.602 3.199,25.602 L15.199,25.602 C16.895,25.602 18.398,24.047 18.398,22.398 L19.199,22.398 C20.895,22.398 22.398,20.848 22.398,19.199 L22.398,6.418 L16.801,0 Z M15.199,24 L3.199,24 C2.359,24 1.602,23.215 1.602,22.398 L1.602,6.398 C1.602,5.586 2.285,4.828 3.125,4.828 L4,4.801 L4,19.199 C4,20.848 5.508,22.398 7.199,22.398 L16.801,22.398 C16.801,23.215 16.039,24 15.199,24 L15.199,24 Z M20.801,19.199 C20.801,20.016 20.039,20.801 19.199,20.801 L7.199,20.801 C6.359,20.801 5.602,20.016 5.602,19.199 L5.602,3.199 C5.602,2.387 6.359,1.602 7.199,1.602 L15.199,1.602 C15.188,3.441 15.199,4.82 15.199,4.82 C15.199,6.48 16.695,8 18.398,8 L20.801,8 L20.801,19.199 Z M18.398,6.398 C17.547,6.398 16.801,4.852 16.801,4.023 L16.801,1.625 L20.801,6.398 L18.398,6.398 Z M16.801,11.215 L9.602,11.215 C9.16,11.215 8.801,11.57 8.801,12.012 C8.801,12.457 9.16,12.812 9.602,12.812 L16.801,12.812 C17.242,12.812 17.602,12.457 17.602,12.012 C17.602,11.57 17.242,11.215 16.801,11.215 L16.801,11.215 Z M16.801,15.211 L9.602,15.211 C9.16,15.211 8.801,15.566 8.801,16.008 C8.801,16.453 9.16,16.809 9.602,16.809 L16.801,16.809 C17.242,16.809 17.602,16.453 17.602,16.008 C17.602,15.566 17.242,15.211 16.801,15.211 L16.801,15.211 Z" id="copy" fill="#000000" sketch:type="MSShapeGroup"></path>
    </g>
</svg>