<?xml version="1.0" encoding="UTF-8" standalone="no"?>
<svg width="26px" height="27px" viewBox="0 0 26 27" version="1.1" xmlns="http://www.w3.org/2000/svg" xmlns:xlink="http://www.w3.org/1999/xlink" xmlns:sketch="http://www.bohemiancoding.com/sketch/ns">
    <!-- Generator: Sketch 3.3 (11970) - http://www.bohemiancoding.com/sketch -->
    <title>down</title>
    <desc>Created with Sketch.</desc>
    <defs></defs>
    <g id="Page-1" stroke="none" stroke-width="1" fill="none" fill-rule="evenodd" sketch:type="MSPage">
        <path d="M17.0527315,14.072 L13.7567315,17.369 L13.7567315,8.9 C13.7567315,8.459 13.3967315,8.099 12.9557315,8.099 C12.5137315,8.099 12.1547315,8.459 12.1547315,8.9 L12.1547315,17.369 L8.85773146,14.072 C8.54573146,13.759 8.03773146,13.759 7.72473146,14.072 C7.41273146,14.384 7.41273146,14.892 7.72473146,15.205 L12.2527315,19.728 C12.4437315,19.92 12.7057315,19.978 12.9557315,19.935 C13.2017315,19.982 13.4667315,19.92 13.6587315,19.728 L18.1857315,15.205 C18.4987315,14.892 18.4987315,14.384 18.1857315,14.072 C17.8737315,13.759 17.3657315,13.759 17.0527315,14.072 L17.0527315,14.072 Z M22.5527315,0.9 L3.35373146,0.9 C1.58873146,0.9 0.154731458,2.334 0.154731458,4.099 L0.154731458,23.298 C0.154731458,25.068 1.58873146,26.502 3.35373146,26.502 L22.5527315,26.502 C24.3227315,26.502 25.7567315,25.068 25.7567315,23.298 L25.7567315,4.099 C25.7567315,2.334 24.3227315,0.9 22.5527315,0.9 L22.5527315,0.9 Z M24.1547315,23.298 C24.1547315,24.181 23.4357315,24.9 22.5527315,24.9 L3.35373146,24.9 C2.47073146,24.9 1.75673146,24.181 1.75673146,23.298 L1.75673146,4.099 C1.75673146,3.216 2.47073146,2.502 3.35373146,2.502 L22.5527315,2.502 C23.4397315,2.502 24.1547315,3.216 24.1547315,4.099 L24.1547315,23.298 Z" id="down" fill="#000000" sketch:type="MSShapeGroup"></path>
    </g>
</svg>