<?xml version="1.0" encoding="utf-8"?><!DOCTYPE svg PUBLIC "-//W3C//DTD SVG 1.1//EN" "http://www.w3.org/Graphics/SVG/1.1/DTD/svg11.dtd"><svg version="1.1" baseProfile="full" xmlns="http://www.w3.org/2000/svg" xmlns:xlink="http://www.w3.org/1999/xlink" xmlns:ev="http://www.w3.org/2001/xml-events"   height="16px"   width="8px" ><path fill="rgb( 38, 90, 153 )" d="M7.698,1.00200000000001 C7.698,1.00200000000001 5.779,0.999 5.779,0.999 C3.624,0.999 2.231,2.44800000000001 2.231,4.691 C2.231,4.691 2.231,6.393 2.231,6.393 C2.231,6.393 0.301,6.393 0.301,6.393 C0.135,6.393 0,6.53 0,6.69900000000001 C0,6.69900000000001 0,9.16499999999999 0,9.16499999999999 C0,9.334 0.135,9.471 0.301,9.471 C0.301,9.471 2.231,9.471 2.231,9.471 C2.231,9.471 2.231,15.694 2.231,15.694 C2.231,15.863 2.366,16 2.532,16 C2.532,16 5.05,16 5.05,16 C5.216,16 5.351,15.863 5.351,15.694 C5.351,15.694 5.351,9.471 5.351,9.471 C5.351,9.471 7.607,9.471 7.607,9.471 C7.774,9.471 7.909,9.334 7.909,9.16499999999999 C7.909,9.16499999999999 7.91,6.69900000000001 7.91,6.69900000000001 C7.91,6.61799999999999 7.878,6.53999999999999 7.821,6.483 C7.765,6.42500000000001 7.688,6.393 7.608,6.393 C7.608,6.393 5.351,6.393 5.351,6.393 C5.351,6.393 5.351,4.94999999999999 5.351,4.94999999999999 C5.351,4.256 5.514,3.905 6.405,3.905 C6.405,3.905 7.698,3.904 7.698,3.904 C7.865,3.904 8,3.767 8,3.59800000000001 C8,3.59800000000001 8,1.30799999999999 8,1.30799999999999 C8,1.13999999999999 7.865,1.00299999999999 7.698,1.00200000000001 Z "/></svg>