<?xml version="1.0" encoding="UTF-8" standalone="no"?>
<svg width="25px" height="24px" viewBox="0 0 25 24" version="1.1" xmlns="http://www.w3.org/2000/svg" xmlns:xlink="http://www.w3.org/1999/xlink" xmlns:sketch="http://www.bohemiancoding.com/sketch/ns">
    <!-- Generator: Sketch 3.3 (11970) - http://www.bohemiancoding.com/sketch -->
    <title>gear</title>
    <desc>Created with Sketch.</desc>
    <defs></defs>
    <g id="Page-1" stroke="none" stroke-width="1" fill="none" fill-rule="evenodd" sketch:type="MSPage">
        <path d="M24.1085345,14.828 L22.2495345,13.746 C22.3545345,13.18 22.4215345,12.598 22.4215345,12 C22.4215345,11.402 22.3545345,10.82 22.2495345,10.254 L24.1085345,9.172 C24.8665345,8.73 25.1285345,7.75 24.6865345,6.984 L23.1005345,4.215 C22.6635345,3.449 21.6945345,3.188 20.9325345,3.629 L19.0575345,4.723 C18.1785345,3.969 17.1825345,3.355 16.0735345,2.957 L16.0735345,1.602 C16.0735345,0.715 15.3665345,0 14.4875345,0 L11.3155345,0 C10.4405345,0 9.72953453,0.719 9.72953453,1.602 L9.72953453,2.957 C8.62053453,3.355 7.62453453,3.969 6.74553453,4.723 L4.87053453,3.629 C4.10853453,3.188 3.13953453,3.449 2.70253453,4.215 L1.11653453,6.984 C0.674534527,7.75 0.936534527,8.73 1.69453453,9.172 L3.55353453,10.254 C3.44853453,10.82 3.38153453,11.402 3.38153453,12 C3.38153453,12.598 3.44853453,13.18 3.55353453,13.746 L1.69453453,14.828 C0.936534527,15.27 0.674534527,16.25 1.11653453,17.016 L2.70253453,19.785 C3.13953453,20.551 4.11253453,20.812 4.87053453,20.371 L6.74553453,19.277 C7.62453453,20.031 8.62053453,20.645 9.72553453,21.043 L9.72553453,22.398 C9.72553453,23.281 10.4365345,24 11.3155345,24 L14.4875345,24 C15.3625345,24 16.0735345,23.281 16.0735345,22.398 L16.0735345,21.043 C17.1825345,20.648 18.1785345,20.031 19.0535345,19.277 L20.9325345,20.371 C21.6905345,20.812 22.6635345,20.551 23.1005345,19.785 L24.6865345,17.016 C25.1285345,16.25 24.8665345,15.27 24.1085345,14.828 L24.1085345,14.828 Z M22.9175345,16.906 L22.1245345,18.293 C21.9055345,18.676 21.4215345,18.805 21.0385345,18.586 L18.8355345,17.301 C17.7175345,18.574 16.2065345,19.488 14.4875345,19.84 L14.4875345,21.602 C14.4875345,22.043 14.1315345,22.398 13.6945345,22.398 L12.1085345,22.398 C11.6675345,22.398 11.3155345,22.043 11.3155345,21.602 L11.3155345,19.84 C9.59653453,19.488 8.08553453,18.574 6.96353453,17.301 L4.76053453,18.586 C4.38153453,18.805 3.89753453,18.676 3.67853453,18.293 L2.88553453,16.906 C2.66753453,16.523 2.79653453,16.035 3.17453453,15.812 L5.38953453,14.527 C5.12453453,13.73 4.96753453,12.887 4.96753453,12 C4.96753453,11.113 5.12453453,10.27 5.38953453,9.473 L3.17453453,8.184 C2.79653453,7.965 2.66753453,7.477 2.88553453,7.094 L3.67853453,5.707 C3.89753453,5.324 4.38153453,5.195 4.76453453,5.414 L6.96753453,6.699 C8.08553453,5.426 9.59653453,4.512 11.3155345,4.16 L11.3155345,2.398 C11.3155345,1.957 11.6715345,1.602 12.1085345,1.602 L13.6945345,1.602 C14.1315345,1.602 14.4875345,1.957 14.4875345,2.398 L14.4875345,4.16 C16.2065345,4.512 17.7175345,5.426 18.8355345,6.699 L21.0425345,5.414 C21.4215345,5.195 21.9055345,5.324 22.1245345,5.707 L22.9175345,7.094 C23.1355345,7.477 23.0065345,7.965 22.6285345,8.188 L20.4135345,9.473 C20.6785345,10.27 20.8355345,11.113 20.8355345,12 C20.8355345,12.887 20.6785345,13.73 20.4135345,14.527 L22.6285345,15.812 C23.0065345,16.035 23.1355345,16.523 22.9175345,16.906 L22.9175345,16.906 Z M12.9015345,8 C10.7105345,8 8.93253453,9.793 8.93253453,12 C8.93253453,14.207 10.7105345,16 12.9015345,16 C15.0925345,16 16.8705345,14.207 16.8705345,12 C16.8665345,9.793 15.0925345,8 12.9015345,8 L12.9015345,8 Z M12.9015345,14.398 C11.5895345,14.398 10.5225345,13.324 10.5225345,12 C10.5225345,10.676 11.5895345,9.602 12.9015345,9.602 C14.2175345,9.602 15.2805345,10.676 15.2805345,12 C15.2805345,13.324 14.2175345,14.398 12.9015345,14.398 L12.9015345,14.398 Z" id="gear" fill="#000000" sketch:type="MSShapeGroup"></path>
    </g>
</svg>