<?xml version="1.0" encoding="utf-8"?><!DOCTYPE svg PUBLIC "-//W3C//DTD SVG 1.1//EN" "http://www.w3.org/Graphics/SVG/1.1/DTD/svg11.dtd"><svg version="1.1" baseProfile="full" xmlns="http://www.w3.org/2000/svg" xmlns:xlink="http://www.w3.org/1999/xlink" xmlns:ev="http://www.w3.org/2001/xml-events"   height="15px"   width="17px" ><path fill="rgb( 34, 159, 255 )" d="M8.083,13.83 C8.083,13.83 2.36199999999999,8.30799999999999 2.36199999999999,8.30799999999999 C1.76400000000001,7.73099999999999 1.33500000000001,7.05000000000001 1.12899999999999,6.30799999999999 C0.934,5.59800000000001 0.94200000000001,4.839 1.208,4.06899999999999 C1.43899999999999,3.398 1.846,2.78899999999999 2.36500000000001,2.297 C2.886,1.803 3.53,1.42099999999999 4.22999999999999,1.20599999999999 C5.05199999999999,0.95400000000001 5.86000000000001,0.94999999999999 6.619,1.143 C7.29499999999999,1.31299999999999 7.93000000000001,1.642 8.49000000000001,2.09299999999999 C9.05199999999999,1.64400000000001 9.68600000000001,1.315 10.362,1.143 C11.121,0.95099999999999 11.932,0.95699999999999 12.751,1.20699999999999 C13.452,1.423 14.096,1.804 14.619,2.30000000000001 C15.137,2.791 15.542,3.399 15.773,4.071 C15.773,4.071 15.773,4.072 15.773,4.072 C15.773,4.072 15.776,4.071 15.776,4.071 C16.039,4.839 16.047,5.59800000000001 15.852,6.30799999999999 C15.646,7.05000000000001 15.217,7.73099999999999 14.619,8.30799999999999 C14.619,8.30799999999999 14.588,8.334 14.588,8.334 C14.588,8.334 8.89500000000001,13.83 8.89500000000001,13.83 C8.66999999999999,14.045 8.30799999999999,14.045 8.083,13.829 C8.083,13.829 8.083,13.83 8.083,13.83 C8.083,13.83 8.083,13.83 8.083,13.83 ZM9.16999999999999,2.99000000000001 C9.16999999999999,2.99000000000001 9.16999999999999,2.99000000000001 9.16999999999999,2.99000000000001 C9.16999999999999,2.99000000000001 9.16999999999999,2.99100000000001 9.16999999999999,2.99100000000001 C9.16999999999999,2.99100000000001 7.33099999999999,4.768 7.33099999999999,4.768 C7.197,4.898 6.97800000000001,4.90000000000001 6.84399999999999,4.77099999999999 C6.708,4.63999999999999 6.708,4.428 6.84299999999999,4.298 C6.84299999999999,4.298 8.011,3.167 8.011,3.167 C8.011,3.167 7.99199999999999,3.15000000000001 7.99199999999999,3.15000000000001 C7.5,2.696 6.93100000000001,2.37100000000001 6.32499999999999,2.21700000000001 C5.77099999999999,2.07499999999999 5.178,2.07900000000001 4.577,2.26400000000001 C4.05199999999999,2.42400000000001 3.56700000000001,2.714 3.17099999999999,3.08799999999999 C2.77699999999999,3.46199999999999 2.471,3.917 2.29900000000001,4.41800000000001 C2.11000000000001,4.97 2.102,5.512 2.24100000000001,6.02000000000001 C2.393,6.56700000000001 2.72,7.08000000000001 3.17699999999999,7.52199999999999 C3.17699999999999,7.52199999999999 8.49000000000001,12.65 8.49000000000001,12.65 C8.49000000000001,12.65 13.776,7.54900000000001 13.776,7.54900000000001 C13.776,7.54900000000001 13.802,7.52199999999999 13.802,7.52199999999999 C14.26,7.08000000000001 14.587,6.56700000000001 14.738,6.02000000000001 C14.877,5.518 14.87,4.97399999999999 14.68,4.41999999999999 C14.68,4.41999999999999 14.683,4.41800000000001 14.683,4.41800000000001 C14.51,3.91999999999999 14.204,3.46299999999999 13.811,3.09100000000001 C13.415,2.715 12.929,2.42500000000001 12.405,2.26499999999999 C11.805,2.08099999999999 11.211,2.07599999999999 10.655,2.21799999999999 C10.123,2.352 9.619,2.62 9.16999999999999,2.99000000000001 C9.16999999999999,2.99000000000001 9.16999999999999,2.99000000000001 9.16999999999999,2.99000000000001 Z "/></svg>