<?xml version="1.0" encoding="UTF-8" standalone="no"?>
<svg width="26px" height="26px" viewBox="0 0 26 26" version="1.1" xmlns="http://www.w3.org/2000/svg" xmlns:xlink="http://www.w3.org/1999/xlink" xmlns:sketch="http://www.bohemiancoding.com/sketch/ns">
    <!-- Generator: Sketch 3.3 (11970) - http://www.bohemiancoding.com/sketch -->
    <title>label</title>
    <desc>Created with Sketch.</desc>
    <defs></defs>
    <g id="Page-1" stroke="none" stroke-width="1" fill="none" fill-rule="evenodd" sketch:type="MSPage">
        <path d="M24.3311969,0.411 L13.5971969,0.411 C12.7531969,0.411 12.5971969,0.782 11.7881969,1.626 L1.22619693,12.157 C-0.0708030691,13.45 -0.0708030691,15.544 1.22619693,16.837 L9.44119693,25.032 C10.7371969,26.321 12.8391969,26.321 14.1361969,25.032 L24.7021969,14.497 C25.3821969,13.821 25.8621969,13.482 25.8621969,12.638 L25.8621969,1.939 C25.8621969,1.095 25.1751969,0.411 24.3311969,0.411 L24.3311969,0.411 Z M12.9641969,23.86 C12.3151969,24.505 11.2651969,24.505 10.6161969,23.86 L2.39819693,15.669 C1.75319693,15.021 1.75319693,13.974 2.39819693,13.325 L3.58519693,12.146 L14.1241969,22.7 L12.9641969,23.86 Z M24.3311969,11.876 C24.3311969,12.298 23.9411969,12.915 23.5261969,13.329 L15.3121969,21.521 L4.76119693,10.974 L12.9641969,2.798 C13.3391969,2.419 13.9411969,1.939 14.3621969,1.939 L23.5621969,1.939 C23.9871969,1.939 24.3271969,2.282 24.3271969,2.704 L24.3271969,11.876 L24.3311969,11.876 Z M15.8981969,5.72 C14.6011969,7.013 14.6011969,9.11 15.8981969,10.403 C17.1941969,11.696 19.2961969,11.696 20.5931969,10.403 C21.8901969,9.11 21.8901969,7.013 20.5931969,5.72 C19.2961969,4.431 17.1941969,4.431 15.8981969,5.72 L15.8981969,5.72 Z M19.4211969,9.232 C18.7731969,9.88 17.7221969,9.88 17.0691969,9.232 C16.4251969,8.587 16.4251969,7.536 17.0691969,6.892 C17.7181969,6.243 18.7691969,6.243 19.4211969,6.892 C20.0691969,7.536 20.0691969,8.587 19.4211969,9.232 L19.4211969,9.232 Z" id="label" fill="#000000" sketch:type="MSShapeGroup"></path>
    </g>
</svg>