<?xml version="1.0" encoding="UTF-8" standalone="no"?>
<svg width="23px" height="16px" viewBox="0 0 23 16" version="1.1" xmlns="http://www.w3.org/2000/svg" xmlns:xlink="http://www.w3.org/1999/xlink" xmlns:sketch="http://www.bohemiancoding.com/sketch/ns">
    <!-- Generator: Sketch 3.3 (11970) - http://www.bohemiancoding.com/sketch -->
    <title>list</title>
    <desc>Created with Sketch.</desc>
    <defs></defs>
    <g id="Page-1" stroke="none" stroke-width="1" fill="none" fill-rule="evenodd" sketch:type="MSPage">
        <path d="M1.602,12.801 C0.715,12.801 0,13.516 0,14.398 C0,15.285 0.715,16 1.602,16 C2.484,16 3.199,15.285 3.199,14.398 C3.199,13.516 2.484,12.801 1.602,12.801 L1.602,12.801 Z M7.199,2.398 L21.602,2.398 C22.043,2.398 22.398,2.043 22.398,1.602 C22.398,1.16 22.043,0.801 21.602,0.801 L7.199,0.801 C6.758,0.801 6.398,1.16 6.398,1.602 C6.398,2.043 6.758,2.398 7.199,2.398 L7.199,2.398 Z M1.602,6.398 C0.715,6.398 0,7.117 0,8 C0,8.883 0.715,9.602 1.602,9.602 C2.484,9.602 3.199,8.883 3.199,8 C3.199,7.117 2.484,6.398 1.602,6.398 L1.602,6.398 Z M21.602,7.199 L7.199,7.199 C6.758,7.199 6.398,7.559 6.398,8 C6.398,8.441 6.758,8.801 7.199,8.801 L21.602,8.801 C22.043,8.801 22.398,8.441 22.398,8 C22.398,7.559 22.043,7.199 21.602,7.199 L21.602,7.199 Z M21.602,13.602 L7.199,13.602 C6.758,13.602 6.398,13.957 6.398,14.398 C6.398,14.84 6.758,15.199 7.199,15.199 L21.602,15.199 C22.043,15.199 22.398,14.84 22.398,14.398 C22.398,13.957 22.043,13.602 21.602,13.602 L21.602,13.602 Z M1.602,0 C0.715,0 0,0.719 0,1.602 C0,2.484 0.715,3.199 1.602,3.199 C2.484,3.199 3.199,2.484 3.199,1.602 C3.199,0.719 2.484,0 1.602,0 L1.602,0 Z" id="list" fill="#000000" sketch:type="MSShapeGroup"></path>
    </g>
</svg>