<?xml version="1.0" encoding="utf-8"?>
<!-- Generator: Adobe Illustrator 18.1.1, SVG Export Plug-In . SVG Version: 6.00 Build 0)  -->
<!DOCTYPE svg PUBLIC "-//W3C//DTD SVG 1.1//EN" "http://www.w3.org/Graphics/SVG/1.1/DTD/svg11.dtd" [
	<!ENTITY ns_extend "http://ns.adobe.com/Extensibility/1.0/">
	<!ENTITY ns_ai "http://ns.adobe.com/AdobeIllustrator/10.0/">
	<!ENTITY ns_graphs "http://ns.adobe.com/Graphs/1.0/">
	<!ENTITY ns_vars "http://ns.adobe.com/Variables/1.0/">
	<!ENTITY ns_imrep "http://ns.adobe.com/ImageReplacement/1.0/">
	<!ENTITY ns_sfw "http://ns.adobe.com/SaveForWeb/1.0/">
	<!ENTITY ns_custom "http://ns.adobe.com/GenericCustomNamespace/1.0/">
	<!ENTITY ns_adobe_xpath "http://ns.adobe.com/XPath/1.0/">
]>
<svg version="1.1" id="Слой_1" xmlns:x="&ns_extend;" xmlns:i="&ns_ai;" xmlns:graph="&ns_graphs;"
	 xmlns="http://www.w3.org/2000/svg" xmlns:xlink="http://www.w3.org/1999/xlink" x="0px" y="0px" width="48.056px"
	 height="45.722px" viewBox="0 0 48.056 45.722" enable-background="new 0 0 48.056 45.722" xml:space="preserve">
<metadata>
	<sfw  xmlns="&ns_sfw;">
		<slices></slices>
		<sliceSourceBounds  height="45.722" width="48.056" y="558.222" x="339.074" bottomLeftOrigin="true"></sliceSourceBounds>
	</sfw>
</metadata>
<g>
	<path fill="#161212" d="M28.432,18.059L24.048,0l-4.637,18.904L0,17.425l15.776,9.774C18.05,21.617,21.86,18.871,28.432,18.059"/>
	<path fill="#161212" d="M25.605,34.466L38.85,45.722l-7.01-17.158h-0.226c-3.401,0.107-5.885,1.295-8.594,4.082L9.141,45.698
		l13.261-11.226C22.51,34.38,24.07,33.161,25.605,34.466"/>
	<path fill="#161212" d="M16.553,27.679H16.55c2.145-5.381,5.777-7.998,12.126-8.746v-0.012l19.38-1.437l-4.437,2.732l-14.172,1.223
		c-5.243,0.478-8.399,2.545-11.255,7.37l-9.051,16.89l9.556-16.588c2.781-4.703,5.71-6.625,10.797-7.096
		c0,0,10.395-0.895,13.019-1.119l-4.52,2.79l-7.525,0.733c-4.505,0.547-7.353,2.219-10.158,5.985L9.141,45.699l11.637-14.946
		c3.11-4.176,6.149-5.316,9.758-5.748c0,0,4.723-0.469,6.321-0.623l-5.374,3.313c-3.596,0.136-6.237,1.398-9.087,4.338L9.141,45.699
		L16.553,27.679z"/>
</g>
</svg>
