<?xml version="1.0" encoding="utf-8"?><!DOCTYPE svg PUBLIC "-//W3C//DTD SVG 1.1//EN" "http://www.w3.org/Graphics/SVG/1.1/DTD/svg11.dtd"><svg version="1.1" baseProfile="full" xmlns="http://www.w3.org/2000/svg" xmlns:xlink="http://www.w3.org/1999/xlink" xmlns:ev="http://www.w3.org/2001/xml-events"   height="19px"   width="21px" ><path fill="rgb( 255, 255, 255 )" d="M19.5,11 C19.5,11 1.5,11 1.5,11 C0.672,11 0,10.328 0,9.5 C0,8.672 0.672,8 1.5,8 C1.5,8 19.5,8 19.5,8 C20.328,8 21,8.672 21,9.5 C21,10.328 20.328,11 19.5,11 ZM19.5,3 C19.5,3 1.5,3 1.5,3 C0.672,3 0,2.328 0,1.5 C0,0.672 0.672,0 1.5,0 C1.5,0 19.5,0 19.5,0 C20.328,0 21,0.672 21,1.5 C21,2.328 20.328,3 19.5,3 ZM1.5,16 C1.5,16 19.5,16 19.5,16 C20.328,16 21,16.672 21,17.5 C21,18.328 20.328,19 19.5,19 C19.5,19 1.5,19 1.5,19 C0.672,19 0,18.328 0,17.5 C0,16.672 0.672,16 1.5,16 Z "/></svg>