<?xml version="1.0" encoding="utf-8"?>
<!-- Generator: Adobe Illustrator 18.1.1, SVG Export Plug-In . SVG Version: 6.00 Build 0)  -->
<!DOCTYPE svg PUBLIC "-//W3C//DTD SVG 1.1//EN" "http://www.w3.org/Graphics/SVG/1.1/DTD/svg11.dtd" [
	<!ENTITY ns_extend "http://ns.adobe.com/Extensibility/1.0/">
	<!ENTITY ns_ai "http://ns.adobe.com/AdobeIllustrator/10.0/">
	<!ENTITY ns_graphs "http://ns.adobe.com/Graphs/1.0/">
	<!ENTITY ns_vars "http://ns.adobe.com/Variables/1.0/">
	<!ENTITY ns_imrep "http://ns.adobe.com/ImageReplacement/1.0/">
	<!ENTITY ns_sfw "http://ns.adobe.com/SaveForWeb/1.0/">
	<!ENTITY ns_custom "http://ns.adobe.com/GenericCustomNamespace/1.0/">
	<!ENTITY ns_adobe_xpath "http://ns.adobe.com/XPath/1.0/">
]>
<svg version="1.1"
	 id="Слой_1" xmlns:x="&ns_extend;" xmlns:i="&ns_ai;" xmlns:graph="&ns_graphs;" xmlns:ev="http://www.w3.org/2001/xml-events"
	 xmlns="http://www.w3.org/2000/svg" xmlns:xlink="http://www.w3.org/1999/xlink" x="0px" y="0px" width="19.9px" height="20px"
	 viewBox="-468.9 271 19.9 20" enable-background="new -468.9 271 19.9 20" xml:space="preserve">
<metadata>
	<sfw  xmlns="&ns_sfw;">
		<slices></slices>
		<sliceSourceBounds  height="20" width="19.9" bottomLeftOrigin="true" y="1" x="0.1"></sliceSourceBounds>
	</sfw>
</metadata>
<path fill="#109DFF" d="M-458.9,271c-5.5,0-9.9,4.5-9.9,10c0,5.5,4.5,10,9.9,10c5.5,0,9.9-4.5,9.9-10
	C-449,275.5-453.4,271-458.9,271L-458.9,271z M-458.9,289.8c-4.8,0-8.7-3.9-8.7-8.8c0-4.8,3.9-8.7,8.7-8.7c4.8,0,8.7,3.9,8.7,8.7
	C-450.2,285.8-454.1,289.8-458.9,289.8L-458.9,289.8z M-455.2,280.4h-7.5c-0.3,0-0.6,0.3-0.6,0.6s0.3,0.6,0.6,0.6h7.5
	c0.3,0,0.6-0.3,0.6-0.6S-454.9,280.4-455.2,280.4L-455.2,280.4z"/>
</svg>
