<?xml version="1.0" encoding="UTF-8" standalone="no"?>
<svg width="8px" height="26px" viewBox="0 0 8 26" version="1.1" xmlns="http://www.w3.org/2000/svg" xmlns:xlink="http://www.w3.org/1999/xlink" xmlns:sketch="http://www.bohemiancoding.com/sketch/ns">
    <!-- Generator: Sketch 3.3 (11970) - http://www.bohemiancoding.com/sketch -->
    <title>pencil</title>
    <desc>Created with Sketch.</desc>
    <defs></defs>
    <g id="Page-1" stroke="none" stroke-width="1" fill="none" fill-rule="evenodd" sketch:type="MSPage">
        <path d="M8,2.023 C8,1.046 7.367,0.421 6.398,0.421 L1.602,0.421 C0.633,0.421 0,1.046 0,2.023 L0,19.792 L3.199,25.441 C3.684,26.187 4.316,26.187 4.801,25.441 L8,19.792 L8,2.023 Z M4,23.828 L1.602,19.621 L6.398,19.621 L4,23.828 Z M6.398,18.023 C4.758,18.019 2.066,18.023 1.602,18.023 L1.602,7.621 L6.398,7.621 L6.398,18.023 Z M6.398,6.023 L1.602,6.023 L1.602,2.82 C1.574,2.031 1.617,1.996 2.398,2.023 L5.602,2.023 C6.387,2.027 6.402,1.996 6.398,2.82 L6.398,6.023 Z" id="pencil" fill="#000000" sketch:type="MSShapeGroup"></path>
    </g>
</svg>