<?xml version="1.0" encoding="UTF-8" standalone="no"?>
<svg width="22px" height="22px" viewBox="0 0 22 22" version="1.1" xmlns="http://www.w3.org/2000/svg" xmlns:xlink="http://www.w3.org/1999/xlink" xmlns:sketch="http://www.bohemiancoding.com/sketch/ns">
    <!-- Generator: Sketch 3.3 (11970) - http://www.bohemiancoding.com/sketch -->
    <title>pencil</title>
    <desc>Created with Sketch.</desc>
    <defs></defs>
    <g id="Page-1" stroke="none" stroke-width="1" fill="none" fill-rule="evenodd" sketch:type="MSPage">
        <path d="M20.6408955,7.12824323 C21.3317389,6.43739991 21.326082,5.54785958 20.6408955,4.86267311 L17.2496114,1.47138898 C16.5644249,0.786202513 15.6748846,0.780545659 14.9840413,1.47138898 L2.4194609,14.0359694 L0.687049285,20.2924502 C0.502494415,21.1628986 0.9493859,21.6097901 1.81983435,21.4252352 L8.07631515,19.6928236 L20.6408955,7.12824323 L20.6408955,7.12824323 Z M2.39400505,19.7182795 L3.67316122,15.0478392 L7.06444534,18.4391233 L2.39400505,19.7182795 L2.39400505,19.7182795 Z M8.19440198,17.3091667 C7.03757529,16.1466831 5.1312154,14.2459801 4.80311786,13.9178825 L12.1584426,6.56255781 L15.5497267,9.95384193 L8.19440198,17.3091667 L8.19440198,17.3091667 Z M16.6796834,8.82388529 L13.2883992,5.43260117 L15.5532623,3.16773815 C16.0913705,2.59003191 16.1465248,2.59568877 16.6796834,3.16703105 L18.9452535,5.43260117 C19.4975039,5.99050842 19.5300308,5.97919471 18.9445464,6.55902227 L16.6796834,8.82388529 L16.6796834,8.82388529 Z" id="pencil" fill="#000000" sketch:type="MSShapeGroup"></path>
    </g>
</svg>