<?xml version="1.0" encoding="UTF-8" standalone="no"?>
<svg width="26px" height="26px" viewBox="0 0 26 26" version="1.1" xmlns="http://www.w3.org/2000/svg" xmlns:xlink="http://www.w3.org/1999/xlink" xmlns:sketch="http://www.bohemiancoding.com/sketch/ns">
    <!-- Generator: Sketch 3.3 (11970) - http://www.bohemiancoding.com/sketch -->
    <title>planetary</title>
    <desc>Created with Sketch.</desc>
    <defs></defs>
    <g id="Page-1" stroke="none" stroke-width="1" fill="none" fill-rule="evenodd" sketch:type="MSPage">
        <path d="M12.801,0.4 C5.73,0.4 0,6.13 0,13.201 C0,20.267 5.73,26.002 12.801,26.002 C19.871,26.002 25.602,20.271 25.602,13.201 C25.602,6.13 19.871,0.4 12.801,0.4 L12.801,0.4 Z M22.078,6.935 C23.148,8.517 23.828,10.384 23.969,12.4 L17.566,12.4 C17.527,10.912 17.402,9.459 17.164,8.072 C18.898,7.826 20.543,7.447 22.078,6.935 L22.078,6.935 Z M20.977,5.556 C19.668,5.97 18.289,6.287 16.852,6.498 C16.516,5.033 16.082,3.638 15.547,2.353 C17.66,2.888 19.531,4.017 20.977,5.556 L20.977,5.556 Z M9.637,12.4 C9.68,10.99 9.809,9.607 10.051,8.275 C10.949,8.353 11.867,8.4 12.801,8.4 C13.734,8.4 14.652,8.353 15.551,8.275 C15.793,9.607 15.922,10.99 15.961,12.4 L9.637,12.4 Z M15.961,14.002 C15.922,15.408 15.793,16.795 15.551,18.127 C14.652,18.045 13.734,18.002 12.801,18.002 C11.867,18.002 10.949,18.045 10.047,18.127 C9.809,16.795 9.68,15.408 9.637,14.002 L15.961,14.002 Z M12.023,2.041 C12.281,2.021 12.539,2.002 12.801,2.002 C13.062,2.002 13.32,2.021 13.578,2.041 C14.258,3.459 14.809,5.033 15.219,6.709 C14.422,6.779 13.617,6.822 12.801,6.822 C11.984,6.822 11.18,6.779 10.383,6.709 C10.793,5.033 11.344,3.459 12.023,2.041 L12.023,2.041 Z M10.055,2.353 C9.52,3.638 9.086,5.033 8.75,6.498 C7.309,6.287 5.93,5.97 4.625,5.556 C6.07,4.017 7.941,2.888 10.055,2.353 L10.055,2.353 Z M3.523,6.935 C5.055,7.447 6.703,7.83 8.438,8.072 C8.199,9.459 8.074,10.912 8.035,12.4 L1.629,12.4 C1.773,10.384 2.453,8.517 3.523,6.935 L3.523,6.935 Z M3.523,19.462 C2.453,17.884 1.773,16.017 1.629,14.002 L8.035,14.002 C8.074,15.486 8.199,16.939 8.438,18.326 C6.703,18.572 5.055,18.955 3.523,19.462 L3.523,19.462 Z M4.625,20.841 C5.93,20.431 7.309,20.115 8.746,19.904 C9.086,21.369 9.52,22.759 10.051,24.045 C7.941,23.513 6.07,22.38 4.625,20.841 L4.625,20.841 Z M13.578,24.361 C13.32,24.377 13.062,24.4 12.801,24.4 C12.539,24.4 12.281,24.377 12.023,24.361 C11.344,22.943 10.793,21.365 10.383,19.693 C11.18,19.623 11.984,19.58 12.801,19.58 C13.617,19.58 14.422,19.623 15.219,19.693 C14.809,21.365 14.258,22.943 13.578,24.361 L13.578,24.361 Z M15.547,24.045 C16.078,22.759 16.516,21.369 16.852,19.904 C18.289,20.115 19.668,20.431 20.973,20.841 C19.531,22.38 17.66,23.513 15.547,24.045 L15.547,24.045 Z M22.078,19.462 C20.543,18.955 18.898,18.572 17.164,18.326 C17.398,16.939 17.527,15.486 17.566,14.002 L23.969,14.002 C23.828,16.017 23.148,17.884 22.078,19.462 L22.078,19.462 Z" id="planetary" fill="#000000" sketch:type="MSShapeGroup"></path>
    </g>
</svg>