<?xml version="1.0" encoding="utf-8"?>
<!-- Generator: Adobe Illustrator 18.1.1, SVG Export Plug-In . SVG Version: 6.00 Build 0)  -->
<!DOCTYPE svg PUBLIC "-//W3C//DTD SVG 1.1//EN" "http://www.w3.org/Graphics/SVG/1.1/DTD/svg11.dtd" [
	<!ENTITY ns_extend "http://ns.adobe.com/Extensibility/1.0/">
	<!ENTITY ns_ai "http://ns.adobe.com/AdobeIllustrator/10.0/">
	<!ENTITY ns_graphs "http://ns.adobe.com/Graphs/1.0/">
	<!ENTITY ns_vars "http://ns.adobe.com/Variables/1.0/">
	<!ENTITY ns_imrep "http://ns.adobe.com/ImageReplacement/1.0/">
	<!ENTITY ns_sfw "http://ns.adobe.com/SaveForWeb/1.0/">
	<!ENTITY ns_custom "http://ns.adobe.com/GenericCustomNamespace/1.0/">
	<!ENTITY ns_adobe_xpath "http://ns.adobe.com/XPath/1.0/">
]>
<svg version="1.1" id="Layer_1" xmlns:x="&ns_extend;" xmlns:i="&ns_ai;" xmlns:graph="&ns_graphs;"
	 xmlns="http://www.w3.org/2000/svg" xmlns:xlink="http://www.w3.org/1999/xlink" x="0px" y="0px" width="65.54px"
	 height="65.541px" viewBox="10.104 10.103 65.54 65.541" enable-background="new 10.104 10.103 65.54 65.541" xml:space="preserve"
	>
<metadata>
	<sfw  xmlns="&ns_sfw;">
		<slices></slices>
		<sliceSourceBounds  height="65.541" width="65.54" bottomLeftOrigin="true" y="394.856" x="257.604"></sliceSourceBounds>
	</sfw>
</metadata>
<g>
	<path d="M53.633,17.571c-4.815-4.816-11.219-7.468-18.029-7.468c-6.81,0-13.216,2.653-18.031,7.469
		c-4.816,4.816-7.469,11.22-7.469,18.031c0,6.811,2.652,13.215,7.469,18.03c4.815,4.816,11.219,7.471,18.031,7.471
		c6.811,0,13.214-2.652,18.029-7.47C63.575,43.691,63.575,27.514,53.633,17.571z M47.978,47.977
		c-3.306,3.305-7.7,5.125-12.374,5.125c-4.675,0-9.069-1.819-12.375-5.126c-3.306-3.305-5.125-7.699-5.125-12.374
		c0-4.675,1.82-9.069,5.125-12.375c3.306-3.305,7.7-5.125,12.375-5.125c4.674,0,9.068,1.82,12.374,5.125
		C54.8,30.051,54.8,41.154,47.978,47.977z"/>
	<path d="M74.472,68.815l-13.06-13.059c-1.561-1.562-4.096-1.562-5.656,0c-1.562,1.562-1.562,4.096,0,5.656l13.059,13.06
		c0.78,0.781,1.805,1.172,2.828,1.172c1.023,0,2.048-0.391,2.828-1.172C76.034,72.911,76.034,70.376,74.472,68.815z"/>
</g>
</svg>
