<?xml version="1.0" encoding="utf-8"?><!DOCTYPE svg PUBLIC "-//W3C//DTD SVG 1.1//EN" "http://www.w3.org/Graphics/SVG/1.1/DTD/svg11.dtd"><svg version="1.1" baseProfile="full" xmlns="http://www.w3.org/2000/svg" xmlns:xlink="http://www.w3.org/1999/xlink" xmlns:ev="http://www.w3.org/2001/xml-events"   height="14px"   width="17px" ><path fill="rgb( 34, 159, 255 )" d="M16.531,0.25800000000001 C15.857,0.66300000000001 15.11,0.95699999999999 14.315,1.11699999999999 C13.679,0.428 12.773,0 11.77,0 C9.843,0 8.282,1.583 8.282,3.53399999999999 C8.282,3.81100000000001 8.313,4.08099999999999 8.372,4.339 C5.474,4.19200000000001 2.904,2.78399999999999 1.184,0.64599999999999 C0.884,1.167 0.712,1.774 0.712,2.423 C0.712,3.649 1.32899999999999,4.732 2.264,5.36500000000001 C1.69199999999999,5.345 1.154,5.18600000000001 0.684,4.92099999999999 C0.684,4.92099999999999 0.684,4.965 0.684,4.965 C0.684,6.678 1.886,8.10599999999999 3.48099999999999,8.43199999999999 C3.18899999999999,8.512 2.881,8.55600000000001 2.562,8.55600000000001 C2.337,8.55600000000001 2.119,8.53299999999999 1.90600000000001,8.49199999999999 C2.34999999999999,9.89599999999999 3.637,10.918 5.163,10.948 C3.97,11.895 2.465,12.46 0.83199999999999,12.46 C0.55,12.46 0.273,12.443 0,12.412 C1.54300000000001,13.414 3.376,14 5.346,14 C11.761,14 15.268,8.613 15.268,3.941 C15.268,3.941 15.257,3.483 15.257,3.483 C15.941,2.98699999999999 16.533,2.364 17,1.65600000000001 C16.374,1.93700000000001 15.703,2.12799999999999 14.998,2.21299999999999 C15.718,1.77500000000001 16.269,1.08199999999999 16.531,0.25800000000001 Z "/></svg>