<?xml version="1.0" encoding="utf-8"?><!DOCTYPE svg PUBLIC "-//W3C//DTD SVG 1.1//EN" "http://www.w3.org/Graphics/SVG/1.1/DTD/svg11.dtd"><svg version="1.1" baseProfile="full" xmlns="http://www.w3.org/2000/svg" xmlns:xlink="http://www.w3.org/1999/xlink" xmlns:ev="http://www.w3.org/2001/xml-events"   height="12px"   width="20px" ><path fill="rgb( 49, 119, 164 )" d="M9.80600000000001,10.958 C9.80600000000001,10.958 10.882,10.958 10.882,10.958 C10.882,10.958 11.207,10.923 11.373,10.749 C11.526,10.589 11.521,10.289 11.521,10.289 C11.521,10.289 11.5,8.88300000000001 12.17,8.67599999999999 C12.831,8.47200000000001 13.679,10.035 14.578,10.636 C15.258,11.09 15.774,10.991 15.774,10.991 C15.774,10.991 18.178,10.958 18.178,10.958 C18.178,10.958 19.435,10.882 18.839,9.91999999999999 C18.79,9.84100000000001 18.492,9.20699999999999 17.052,7.90600000000001 C15.544,6.54300000000001 15.746,6.76300000000001 17.562,4.40700000000001 C18.668,2.971 19.11,2.095 18.972,1.72 C18.84,1.36199999999999 18.027,1.45699999999999 18.027,1.45699999999999 C18.027,1.45699999999999 15.32,1.47300000000001 15.32,1.47300000000001 C15.32,1.47300000000001 15.119,1.446 14.971,1.53299999999999 C14.825,1.61799999999999 14.732,1.816 14.732,1.816 C14.732,1.816 14.303,2.92599999999999 13.732,3.87100000000001 C12.527,5.864 12.045,5.97 11.848,5.846 C11.39,5.55699999999999 11.504,4.68700000000001 11.504,4.06899999999999 C11.504,2.137 11.805,1.33199999999999 10.919,1.12299999999999 C10.624,1.054 10.408,1.00899999999999 9.655,1.001 C8.69,0.99100000000001 7.87200000000001,1.00399999999999 7.41,1.22499999999999 C7.102,1.37200000000001 6.864,1.69900000000001 7.00899999999999,1.71799999999999 C7.18799999999999,1.74100000000001 7.59299999999999,1.82400000000001 7.80699999999999,2.10900000000001 C8.08500000000001,2.476 8.07499999999999,3.30199999999999 8.07499999999999,3.30199999999999 C8.07499999999999,3.30199999999999 8.23500000000001,5.57499999999999 7.703,5.858 C7.33799999999999,6.05099999999999 6.83799999999999,5.65600000000001 5.76300000000001,3.84800000000001 C5.21299999999999,2.922 4.797,1.89699999999999 4.797,1.89699999999999 C4.797,1.89699999999999 4.71700000000001,1.70599999999999 4.57400000000001,1.60400000000001 C4.40100000000001,1.47999999999999 4.15799999999999,1.44 4.15799999999999,1.44 C4.15799999999999,1.44 1.58600000000001,1.45699999999999 1.58600000000001,1.45699999999999 C1.58600000000001,1.45699999999999 1.19999999999999,1.46700000000001 1.059,1.631 C0.93199999999999,1.77600000000001 1.04900000000001,2.077 1.04900000000001,2.077 C1.04900000000001,2.077 3.06200000000001,6.66499999999999 5.34200000000001,8.977 C7.43299999999999,11.097 9.80600000000001,10.958 9.80600000000001,10.958 C9.80600000000001,10.958 9.80600000000001,10.958 9.80600000000001,10.958 Z "/></svg>